<svg width="21" height="20" viewBox="0 0 21 20" fill="none" xmlns="http://www.w3.org/2000/svg">
<path d="M4.52669 4.87396C4.82639 4.7027 5.20818 4.80683 5.37943 5.10652L6.8716 7.71782C8.0248 7.17712 9.31215 6.875 10.6701 6.875C11.8991 6.875 13.0702 7.12243 14.1364 7.5702L15.5442 5.10652C15.7155 4.80683 16.0972 4.7027 16.3969 4.87396C16.6966 5.04522 16.8008 5.427 16.6295 5.7267L15.2535 8.13465C17.6316 9.55352 19.2968 12.0431 19.5843 14.9383C19.6017 15.1139 19.5441 15.2887 19.4256 15.4195C19.3071 15.5504 19.1388 15.625 18.9623 15.625H2.37794C2.20143 15.625 2.03316 15.5504 1.91468 15.4195C1.7962 15.2887 1.73856 15.1139 1.75599 14.9382C2.03091 12.1694 3.566 9.7715 5.77967 8.32639L4.29413 5.7267C4.12287 5.427 4.227 5.04522 4.52669 4.87396ZM3.09945 14.375H18.2408C17.5594 10.8154 14.4286 8.125 10.6701 8.125C6.91165 8.125 3.78085 10.8154 3.09945 14.375ZM6.92013 12.9167C7.38037 12.9167 7.75346 12.5436 7.75346 12.0833C7.75346 11.6231 7.38037 11.25 6.92013 11.25C6.45989 11.25 6.0868 11.6231 6.0868 12.0833C6.0868 12.5436 6.45989 12.9167 6.92013 12.9167ZM15.2535 12.0833C15.2535 12.5436 14.8804 12.9167 14.4202 12.9167C13.9599 12.9167 13.5868 12.5436 13.5868 12.0833C13.5868 11.6231 13.9599 11.25 14.4202 11.25C14.8804 11.25 15.2535 11.6231 15.2535 12.0833Z" fill="#6C727F"/>
</svg>
