<svg width="21" height="20" viewBox="0 0 21 20" fill="none" xmlns="http://www.w3.org/2000/svg">
<path d="M18.302 2.94194C18.5461 2.69786 18.5461 2.30214 18.302 2.05806C18.0579 1.81398 17.6622 1.81398 17.4181 2.05806L15.7421 3.73412C14.8486 3.08881 13.855 2.9766 13.0009 3.10602C12.024 3.25403 11.1682 3.72477 10.7515 4.14143L9.50154 5.39142C9.25746 5.6355 9.25746 6.03122 9.50154 6.2753L14.0849 10.8586C14.2021 10.9758 14.361 11.0417 14.5268 11.0417C14.6926 11.0417 14.8515 10.9758 14.9687 10.8586L16.2188 9.60862C16.6354 9.19197 17.1061 8.33617 17.2541 7.35926C17.3835 6.50509 17.2713 5.5115 16.626 4.61798L18.302 2.94194ZM15.3303 5.02075L15.3348 5.02527L15.3393 5.02977C15.9984 5.69172 16.1254 6.46452 16.0182 7.17201C15.9058 7.91383 15.5432 8.51636 15.3349 8.72477L14.5268 9.53281L10.8274 5.83336L11.6354 5.02529C11.8438 4.81692 12.4463 4.45431 13.1881 4.34191C13.8956 4.23472 14.6684 4.36177 15.3303 5.02075ZM6.19345 8.95837C6.35921 8.95837 6.51818 9.02422 6.63539 9.14143L7.02674 9.53278L8.25146 8.30806C8.49554 8.06398 8.89127 8.06398 9.13534 8.30806C9.37942 8.55214 9.37942 8.94786 9.13534 9.19194L7.91062 10.4167L9.94343 12.4495L11.1682 11.2247C11.4123 10.9806 11.808 10.9806 12.0521 11.2247C12.2962 11.4688 12.2962 11.8645 12.0521 12.1086L10.8273 13.3334L11.2187 13.7248C11.4628 13.9688 11.4628 14.3646 11.2187 14.6086L9.96874 15.8586C9.5521 16.2753 8.69627 16.746 7.71937 16.8941C6.8652 17.0235 5.8716 16.9113 4.97808 16.2659L3.30205 17.9419C3.05797 18.186 2.66225 18.186 2.41817 17.9419C2.17409 17.6978 2.17409 17.3021 2.41817 17.058L4.09422 15.382C3.44891 14.4885 3.33671 13.4949 3.46613 12.6408C3.61415 11.6639 4.08488 10.8081 4.5015 10.3914L5.75151 9.14143C5.86872 9.02422 6.02769 8.95837 6.19345 8.95837ZM6.58667 10.8605L6.58479 10.8586L6.58292 10.8567L6.19345 10.4673L5.38541 11.2753C5.17702 11.4837 4.81442 12.0862 4.70202 12.8281C4.59487 13.5353 4.72178 14.3077 5.38014 14.9695L5.38538 14.9747L5.39059 14.98C6.05238 15.6384 6.82489 15.7653 7.53211 15.6582C8.27396 15.5458 8.87647 15.1832 9.08483 14.9748L9.8929 14.1667L6.58667 10.8605Z" fill="#6C727F"/>
</svg>
