<svg width="21" height="20" viewBox="0 0 21 20" fill="none" xmlns="http://www.w3.org/2000/svg">
<path d="M10.8994 3.06836C10.4712 3.67469 10.2392 4.40002 10.2089 5.22578C10.3474 5.21039 10.4857 5.19192 10.6234 5.17046C10.7783 5.14571 10.9066 5.11821 11.0001 5.09027C11.2834 4.99295 11.6041 4.77766 11.9506 4.45247C12.3211 4.08342 12.6001 3.67449 12.7786 3.24001C12.9489 2.79128 13.0352 2.38332 13.0352 2.02755V1.87065C13.0282 1.84075 13.0215 1.81075 13.015 1.78076C12.0412 2.02606 11.3297 2.45896 10.8994 3.06836ZM7.42248 4.85315C8.11915 4.85315 8.70011 5.15825 9.13587 5.3871C9.64776 5.65593 9.98735 5.82603 10.3713 5.82603C10.7779 5.82603 11.1642 5.63826 11.5269 5.46193C11.5709 5.44053 11.6147 5.41926 11.658 5.39855C12.1555 5.16079 12.7993 4.85315 13.572 4.85315C14.6326 4.85315 15.5211 5.38879 16.2287 6.30922C16.4272 6.56749 16.3941 6.93495 16.1526 7.15355C15.3388 7.89003 14.938 8.79692 14.938 9.91866C14.938 11.4955 16.0549 12.1916 16.5697 12.4981C16.8255 12.6504 16.9384 12.9619 16.8396 13.2427C16.6587 13.7566 16.324 14.4071 15.9839 14.9799C15.6483 15.5451 15.2663 16.1044 14.9709 16.4095L14.9592 16.4217C14.733 16.6554 14.4864 16.9102 14.1878 17.0913C13.8541 17.2937 13.4879 17.3893 13.0352 17.3893C12.7742 17.3893 12.5095 17.3326 12.275 17.268C12.0622 17.2095 11.8386 17.1339 11.6311 17.0638L11.5614 17.0403C11.0714 16.8751 10.6828 16.7568 10.3713 16.7568C10.0704 16.7568 9.74262 16.8683 9.29752 17.0338L9.23449 17.0573C8.84913 17.2012 8.34552 17.3893 7.84008 17.3893C6.78119 17.3893 6.1004 16.5667 5.87572 16.2953C4.37051 14.5113 3.47705 12.27 3.47705 9.91866C3.47705 7.64572 4.7958 4.85315 7.42248 4.85315ZM5.79255 6.85387C5.23348 7.40107 4.72705 8.34249 4.72705 9.91866C4.72705 11.935 5.48511 13.9169 6.79333 15.4439C7.06493 15.7609 7.38906 16.1393 7.84008 16.1393C8.10211 16.1393 8.40387 16.0325 8.86189 15.8622L8.88359 15.8541C9.28649 15.7043 9.81738 15.5068 10.3713 15.5068C10.9246 15.5068 11.5127 15.7047 11.9607 15.8558L12.0277 15.8784C12.2421 15.9508 12.4306 16.0144 12.6066 16.0628C12.8031 16.1169 12.941 16.1393 13.0352 16.1393C13.2932 16.1393 13.4284 16.0899 13.5395 16.0226C13.6804 15.9371 13.8185 15.8029 14.0727 15.5402C14.261 15.3457 14.582 14.8927 14.9091 14.3418C15.1238 13.9802 15.3229 13.607 15.4738 13.2795C14.7598 12.7749 13.688 11.7546 13.688 9.91866C13.688 8.66237 14.0872 7.56956 14.8782 6.66815C14.456 6.26785 14.0219 6.10315 13.572 6.10315C13.1173 6.10315 12.7123 6.28011 12.1925 6.52851L12.1162 6.56509C11.65 6.78892 11.052 7.07603 10.3713 7.07603C9.66415 7.07603 9.07822 6.76853 8.63885 6.53793L8.60116 6.51817C8.11351 6.26258 7.78633 6.10315 7.42248 6.10315C7.04247 6.10315 6.36956 6.28911 5.79255 6.85387Z" fill="#6C727F"/>
</svg>
