<svg width="21" height="20" viewBox="0 0 21 20" fill="none" xmlns="http://www.w3.org/2000/svg">
<path d="M5.33 3.54175C4.06435 3.54175 3.03833 4.56776 3.03833 5.83341V12.5001C3.03833 13.7657 4.06435 14.7917 5.33 14.7917H9.705V16.4584H7.82996C7.48478 16.4584 7.20496 16.7382 7.20496 17.0834C7.20496 17.4285 7.48478 17.7084 7.82996 17.7084H12.83C13.1752 17.7084 13.455 17.4285 13.455 17.0834C13.455 16.7382 13.1752 16.4584 12.83 16.4584H10.955V14.7917H15.33C16.5957 14.7917 17.6217 13.7657 17.6217 12.5001V5.83341C17.6217 4.56776 16.5957 3.54175 15.33 3.54175H5.33ZM4.28833 5.83341C4.28833 5.25812 4.7547 4.79175 5.33 4.79175H15.33C15.9053 4.79175 16.3717 5.25812 16.3717 5.83341V12.5001C16.3717 13.0754 15.9053 13.5417 15.33 13.5417H5.33C4.7547 13.5417 4.28833 13.0754 4.28833 12.5001V5.83341Z" fill="#6C727F"/>
</svg>
