<svg width="225" height="40" viewBox="0 0 225 40" fill="none" xmlns="http://www.w3.org/2000/svg">
<g clip-path="url(#clip0_1_741)">
<path d="M130.174 29.5521V13.7617H132.542V29.5521H130.174Z" fill="#101010"/>
<path d="M114.098 29.5521L120.063 13.7617H123.124L129.066 29.5521H126.519L125.358 26.3807H117.806L116.645 29.5521H114.098ZM118.589 24.2589H124.576L121.583 16.0174L118.589 24.2589Z" fill="#101010"/>
<path d="M103.959 29.6861C102.723 29.6861 101.688 29.4331 100.854 28.9267C100.02 28.4205 99.3868 27.7208 98.9549 26.8274C98.5379 25.919 98.3293 24.8768 98.3293 23.7005C98.3293 22.5094 98.5453 21.4596 98.9772 20.5513C99.424 19.6431 100.064 18.9284 100.899 18.4072C101.747 17.8861 102.768 17.6255 103.959 17.6255C104.868 17.6255 105.657 17.7968 106.327 18.1392C106.998 18.4668 107.549 18.9135 107.981 19.4793C108.428 20.0451 108.755 20.6779 108.964 21.3777C109.172 22.0627 109.262 22.7774 109.232 23.5218C109.232 23.6856 109.224 23.8419 109.209 23.9909C109.195 24.1398 109.18 24.2961 109.165 24.4599H100.653C100.698 25.0554 100.846 25.5989 101.1 26.0903C101.368 26.5816 101.74 26.9762 102.217 27.2741C102.693 27.5569 103.282 27.6984 103.982 27.6984C104.369 27.6984 104.741 27.6537 105.099 27.5644C105.471 27.4602 105.799 27.3038 106.082 27.0954C106.38 26.872 106.588 26.5891 106.707 26.2467H109.031C108.837 27.0358 108.487 27.6909 107.981 28.212C107.489 28.7183 106.886 29.0906 106.171 29.3288C105.471 29.5671 104.734 29.6861 103.959 29.6861ZM100.698 22.6284H106.953C106.938 22.0477 106.804 21.5341 106.551 21.0874C106.298 20.6258 105.948 20.2685 105.501 20.0153C105.054 19.7473 104.518 19.6133 103.892 19.6133C103.207 19.6133 102.634 19.7547 102.172 20.0377C101.725 20.3206 101.375 20.6928 101.122 21.1543C100.884 21.601 100.742 22.0924 100.698 22.6284Z" fill="#101010"/>
<path d="M87.7576 29.5521V13.7617H90.0587V22.6731H91.9577L95.2642 17.7818H97.8558L93.9907 23.3878L98.1908 29.5521H95.4876L92.1364 24.7055H90.0587V29.5521H87.7576Z" fill="#101010"/>
<path d="M79.9249 29.6861C79.3888 29.6861 78.8676 29.6192 78.3611 29.4852C77.8696 29.3362 77.4302 29.1204 77.043 28.8374C76.6557 28.5397 76.343 28.1749 76.1047 27.743C75.8813 27.2964 75.7695 26.7752 75.7695 26.1796C75.7695 25.4649 75.9036 24.8768 76.1718 24.4152C76.4547 23.9387 76.827 23.5739 77.2888 23.3209C77.7504 23.0528 78.2792 22.8666 78.875 22.7624C79.4857 22.6434 80.1186 22.5838 80.774 22.5838H83.6559C83.6559 22.0031 83.5666 21.4968 83.3878 21.065C83.2091 20.6184 82.9262 20.2759 82.5389 20.0377C82.1665 19.7845 81.6676 19.658 81.0421 19.658C80.6696 19.658 80.3122 19.7026 79.9697 19.792C79.642 19.8664 79.359 19.993 79.1207 20.1717C78.8824 20.3504 78.7186 20.5886 78.6292 20.8863H76.2163C76.3058 20.3206 76.5068 19.8366 76.8196 19.4346C77.1323 19.0177 77.5196 18.6752 77.9814 18.4072C78.443 18.1392 78.9345 17.9457 79.4558 17.8265C79.992 17.6925 80.5356 17.6255 81.0867 17.6255C82.7846 17.6255 84.0059 18.1243 84.7506 19.1219C85.5102 20.1046 85.8901 21.4596 85.8901 23.1868V29.5521H83.9017L83.8124 28.0557C83.4698 28.5173 83.0602 28.8672 82.5836 29.1054C82.1218 29.3437 81.6601 29.5 81.1984 29.5745C80.7367 29.6489 80.3122 29.6861 79.9249 29.6861ZM80.2825 27.743C80.9527 27.743 81.541 27.6313 82.0474 27.4081C82.5538 27.1698 82.9485 26.8348 83.2314 26.403C83.5145 25.9563 83.6559 25.4352 83.6559 24.8395V24.3483H81.5559C81.124 24.3483 80.6995 24.3631 80.2825 24.3928C79.8804 24.4078 79.508 24.4673 79.1654 24.5715C78.8377 24.6608 78.5697 24.8172 78.3611 25.0406C78.1675 25.2639 78.0706 25.584 78.0706 26.0009C78.0706 26.403 78.175 26.7305 78.3835 26.9837C78.5919 27.2368 78.8676 27.4304 79.21 27.5644C79.5526 27.6835 79.9101 27.743 80.2825 27.743Z" fill="#101010"/>
<path d="M58.5205 29.5521V17.7818H60.6876L60.8216 19.1666C61.0897 18.7795 61.3876 18.4817 61.7153 18.2732C62.0578 18.0498 62.4228 17.8861 62.81 17.7818C63.1972 17.6776 63.5919 17.6255 63.994 17.6255C64.7834 17.6255 65.4314 17.7894 65.9377 18.1169C66.459 18.4444 66.8611 18.8911 67.1442 19.457C67.4271 19.055 67.7473 18.7199 68.1048 18.4519C68.4622 18.169 68.8569 17.9605 69.2888 17.8265C69.7208 17.6925 70.1826 17.6255 70.674 17.6255C71.5528 17.6255 72.2603 17.8191 72.7964 18.2062C73.3475 18.5785 73.7422 19.0847 73.9805 19.725C74.2336 20.3652 74.3603 21.1022 74.3603 21.9361V29.5521H72.0369V22.8518C72.0369 22.4944 72.0219 22.1371 71.9922 21.7797C71.9624 21.4224 71.873 21.0874 71.724 20.7747C71.59 20.4471 71.3889 20.1866 71.1209 19.993C70.8676 19.7845 70.5028 19.6803 70.0261 19.6803C69.5645 19.6803 69.1772 19.7845 68.8644 19.993C68.5665 20.2014 68.3207 20.4844 68.1272 20.8416C67.9484 21.1841 67.8144 21.5564 67.725 21.9584C67.6505 22.3604 67.6133 22.7624 67.6133 23.1645V29.5521H65.2899V22.8295C65.2899 22.487 65.2749 22.1371 65.2452 21.7797C65.2154 21.4224 65.1409 21.0874 65.0218 20.7747C64.9026 20.4471 64.7015 20.1866 64.4186 19.993C64.1505 19.7845 63.7855 19.6803 63.3238 19.6803C62.6536 19.6803 62.1323 19.8739 61.76 20.2609C61.4026 20.6333 61.1568 21.0948 61.0227 21.6457C60.8887 22.1817 60.8216 22.6955 60.8216 23.1868V29.5521H58.5205Z" fill="#101010"/>
<path d="M49.0522 29.5521L43.1765 13.7617H45.7681L50.7055 27.5421L55.6205 13.7617H58.1674L52.3364 29.5521H49.0522Z" fill="#101010"/>
<path d="M21.9512 23.0981L17.6253 33.7906C17.4621 34.1901 17.0743 34.447 16.6418 34.447C16.2133 34.447 15.8256 34.186 15.6624 33.7906L4.93335 7.26514H15.544L21.9512 23.0981Z" fill="#5D50FF"/>
<path d="M26.1793 12.6462H20.1882C20.1882 12.6462 23.0572 5.55322 25.7303 5.55322C29.0481 5.55322 26.1793 12.6462 26.1793 12.6462Z" fill="#5D50FF"/>
<path d="M38.1163 9.36063C38.1121 9.36878 38.1121 9.37285 38.108 9.381C38.108 9.38509 38.104 9.38917 38.104 9.39324L28.6686 32.7269C28.2402 33.7664 27.2281 34.4472 26.0976 34.4472H16.646C17.0786 34.4472 17.4663 34.1862 17.6295 33.7908L26.1793 12.6462C26.1793 12.6462 29.0481 5.55322 25.7303 5.55322H35.5411C36.4675 5.55322 37.3326 6.01386 37.8469 6.78431C38.357 7.54661 38.4591 8.50865 38.1163 9.36063Z" fill="url(#paint0_linear_1_741)"/>
<path d="M150.311 27.0659C149.968 27.0659 149.649 27.0279 149.355 26.9516C149.069 26.866 148.808 26.7471 148.569 26.5948C148.341 26.4426 148.141 26.2665 147.97 26.0667L147.913 26.9802H146.756V16.8884H147.97V20.5426C148.217 20.1619 148.569 19.8717 149.027 19.6718C149.493 19.4721 149.968 19.3721 150.454 19.3721C151.215 19.3721 151.838 19.5434 152.323 19.886C152.809 20.2191 153.165 20.6758 153.394 21.2563C153.632 21.8273 153.751 22.4744 153.751 23.1976C153.751 23.9113 153.628 24.5631 153.379 25.1531C153.132 25.7337 152.756 26.1999 152.252 26.552C151.748 26.8946 151.101 27.0659 150.311 27.0659ZM150.296 25.9953C150.849 25.9953 151.287 25.8717 151.61 25.6242C151.934 25.3672 152.167 25.0295 152.309 24.6108C152.462 24.1921 152.537 23.7306 152.537 23.2261C152.537 22.7122 152.462 22.246 152.309 21.8273C152.167 21.4086 151.929 21.0756 151.596 20.828C151.262 20.5806 150.82 20.457 150.268 20.457C149.774 20.457 149.35 20.595 148.997 20.8709C148.655 21.1469 148.394 21.499 148.213 21.9272C148.031 22.3554 147.941 22.7932 147.941 23.2405C147.941 23.7257 148.017 24.1777 148.17 24.5964C148.331 25.0152 148.583 25.353 148.927 25.6099C149.278 25.8669 149.735 25.9953 150.296 25.9953ZM158.697 30.349C158.116 30.349 157.555 30.268 157.012 30.1063C156.479 29.9445 155.999 29.6638 155.571 29.2641L156.099 28.3077C156.47 28.6028 156.865 28.8358 157.284 29.0071C157.712 29.1784 158.159 29.2641 158.625 29.2641C159.405 29.2641 159.963 29.0357 160.296 28.5789C160.638 28.1317 160.81 27.5607 160.81 26.866V25.9667C160.638 26.2237 160.419 26.4378 160.152 26.6091C159.896 26.7709 159.61 26.8946 159.296 26.9802C158.983 27.0564 158.658 27.0945 158.325 27.0945C157.583 27.0945 156.998 26.9469 156.57 26.6519C156.142 26.357 155.837 25.9478 155.656 25.4244C155.476 24.901 155.385 24.2967 155.385 23.6115V19.4577H156.598V23.2689C156.598 23.6115 156.617 23.9494 156.656 24.2824C156.703 24.6059 156.793 24.901 156.926 25.1675C157.061 25.4244 157.255 25.6337 157.512 25.7954C157.769 25.9478 158.111 26.0239 158.539 26.0239C159.082 26.0239 159.515 25.8906 159.839 25.6242C160.172 25.3578 160.41 25.0009 160.552 24.5536C160.705 24.1064 160.78 23.6115 160.78 23.0692V19.4577H161.995V26.9802C161.995 27.5227 161.923 28.0033 161.78 28.422C161.637 28.8407 161.423 29.1928 161.138 29.4782C160.852 29.7637 160.505 29.9778 160.096 30.1205C159.696 30.2729 159.23 30.349 158.697 30.349ZM166.936 26.9802L170.69 16.8884H172.474L176.214 26.9802H174.872L174.073 24.8105H169.077L168.278 26.9802H166.936ZM169.491 23.6829H173.659L171.575 17.9733L169.491 23.6829ZM177.312 26.9802V19.4577H178.526V26.9802H177.312ZM177.912 18.3443C177.665 18.3443 177.465 18.2682 177.312 18.116C177.169 17.9638 177.098 17.7687 177.098 17.5307C177.098 17.2928 177.174 17.1025 177.326 16.9598C177.479 16.8076 177.674 16.7314 177.912 16.7314C178.131 16.7314 178.321 16.8076 178.482 16.9598C178.654 17.112 178.74 17.3024 178.74 17.5307C178.74 17.7687 178.659 17.9638 178.496 18.116C178.335 18.2682 178.14 18.3443 177.912 18.3443ZM180.434 26.9802V19.4577H181.605L181.662 20.6283C181.853 20.3332 182.072 20.0954 182.319 19.9145C182.575 19.7337 182.856 19.6005 183.161 19.5149C183.475 19.4197 183.813 19.3721 184.174 19.3721C184.241 19.3721 184.303 19.3721 184.36 19.3721C184.427 19.3721 184.493 19.3721 184.56 19.3721V20.5141H184.117C183.527 20.5141 183.047 20.6425 182.675 20.8995C182.314 21.1469 182.053 21.4847 181.89 21.913C181.729 22.3317 181.648 22.7979 181.648 23.3117V26.9802H180.434ZM186.03 26.9802V16.8884H189.57C190.075 16.8884 190.531 16.9312 190.941 17.0169C191.35 17.0931 191.702 17.2263 191.997 17.4166C192.302 17.607 192.535 17.8639 192.697 18.1874C192.858 18.5109 192.94 18.9201 192.94 19.4149C192.94 19.9288 192.821 20.3856 192.583 20.7852C192.354 21.185 191.997 21.4799 191.513 21.6703C192.16 21.7845 192.644 22.051 192.968 22.4696C193.291 22.8788 193.454 23.426 193.454 24.1111C193.454 24.6726 193.349 25.1389 193.14 25.51C192.93 25.8811 192.64 26.1761 192.269 26.395C191.907 26.6044 191.488 26.7566 191.013 26.8518C190.536 26.9374 190.033 26.9802 189.5 26.9802H186.03ZM187.273 25.8526H189.456C189.751 25.8526 190.056 25.8383 190.37 25.8098C190.694 25.7717 190.994 25.7004 191.269 25.5957C191.546 25.4815 191.769 25.3055 191.941 25.0675C192.111 24.8296 192.197 24.5108 192.197 24.1111C192.197 23.7686 192.13 23.4879 191.997 23.2689C191.874 23.0501 191.702 22.8788 191.483 22.7551C191.274 22.6314 191.031 22.5458 190.755 22.4981C190.48 22.4506 190.198 22.4268 189.914 22.4268H187.273V25.8526ZM187.273 21.3134H189.214C189.566 21.3134 189.894 21.2849 190.199 21.2278C190.503 21.1612 190.77 21.0565 190.998 20.9137C191.227 20.771 191.402 20.5855 191.527 20.357C191.66 20.1286 191.727 19.8431 191.727 19.5006C191.736 19.0629 191.641 18.7393 191.441 18.53C191.241 18.3206 190.974 18.1826 190.641 18.116C190.317 18.0494 189.966 18.0161 189.586 18.0161H187.273V21.3134ZM195.112 26.9802V19.4577H196.283L196.341 20.6283C196.531 20.3332 196.75 20.0954 196.997 19.9145C197.254 19.7337 197.535 19.6005 197.839 19.5149C198.154 19.4197 198.491 19.3721 198.852 19.3721C198.919 19.3721 198.982 19.3721 199.038 19.3721C199.105 19.3721 199.171 19.3721 199.238 19.3721V20.5141H198.796C198.205 20.5141 197.725 20.6425 197.354 20.8995C196.992 21.1469 196.731 21.4847 196.569 21.913C196.408 22.3317 196.327 22.7979 196.327 23.3117V26.9802H195.112ZM203.578 27.0659C202.541 27.0659 201.751 26.7899 201.209 26.238C200.676 25.686 200.409 24.8391 200.409 23.6971V19.4577H201.623V23.6401C201.623 24.1349 201.693 24.5584 201.837 24.9105C201.979 25.2626 202.193 25.5338 202.479 25.7242C202.775 25.905 203.141 25.9953 203.578 25.9953C204.035 25.9953 204.411 25.905 204.706 25.7242C205 25.5338 205.215 25.2626 205.349 24.9105C205.491 24.5584 205.563 24.1349 205.563 23.6401V19.4577H206.776V23.6971C206.776 24.8391 206.499 25.686 205.947 26.238C205.405 26.7899 204.616 27.0659 203.578 27.0659ZM211.403 27.0659C211.06 27.0659 210.713 27.0326 210.36 26.966C210.018 26.8994 209.694 26.7852 209.39 26.6234C209.096 26.4617 208.847 26.2427 208.647 25.9667C208.449 25.6909 208.319 25.3483 208.263 24.939H209.49C209.585 25.1959 209.738 25.4053 209.947 25.5671C210.166 25.7193 210.409 25.8289 210.674 25.8954C210.951 25.962 211.212 25.9953 211.46 25.9953C211.612 25.9953 211.789 25.9858 211.989 25.9667C212.189 25.9478 212.378 25.905 212.559 25.8383C212.75 25.7621 212.901 25.6527 213.016 25.51C213.139 25.3672 213.201 25.1675 213.201 24.9105C213.201 24.7202 213.159 24.5631 213.073 24.4395C212.987 24.3157 212.868 24.2158 212.716 24.1397C212.564 24.0541 212.378 23.9922 212.159 23.9541C211.712 23.859 211.232 23.7686 210.718 23.6829C210.213 23.5973 209.766 23.4355 209.376 23.1976C209.243 23.112 209.119 23.0168 209.005 22.9121C208.9 22.7979 208.81 22.6742 208.733 22.5409C208.658 22.3982 208.596 22.246 208.549 22.0842C208.51 21.913 208.491 21.7273 208.491 21.5276C208.491 21.1564 208.563 20.8376 208.705 20.5711C208.857 20.2952 209.066 20.0716 209.333 19.9003C209.599 19.7195 209.904 19.5862 210.246 19.5006C210.599 19.4149 210.974 19.3721 211.374 19.3721C211.87 19.3721 212.312 19.453 212.701 19.6148C213.101 19.767 213.43 19.9955 213.687 20.2999C213.944 20.595 214.096 20.9613 214.144 21.3991H213.016C212.95 21.1231 212.768 20.8995 212.473 20.7282C212.178 20.5473 211.803 20.457 211.346 20.457C211.193 20.457 211.023 20.4712 210.832 20.4998C210.641 20.5189 210.46 20.5664 210.29 20.6425C210.118 20.7091 209.976 20.8138 209.862 20.9565C209.747 21.0898 209.69 21.2706 209.69 21.499C209.69 21.7084 209.743 21.8844 209.847 22.0271C209.962 22.1699 210.118 22.284 210.318 22.3697C210.518 22.4553 210.746 22.5267 211.003 22.5838C211.337 22.6505 211.703 22.7218 212.103 22.7979C212.501 22.8646 212.816 22.9359 213.045 23.012C213.348 23.1072 213.601 23.2405 213.801 23.4117C214.011 23.583 214.163 23.7876 214.258 24.0255C214.363 24.2634 214.414 24.5394 214.414 24.8533C214.414 25.3006 214.325 25.667 214.144 25.9525C213.972 26.238 213.739 26.4617 213.444 26.6234C213.15 26.7852 212.82 26.8994 212.459 26.966C212.107 27.0326 211.756 27.0659 211.403 27.0659ZM215.925 26.9802V16.8884H217.138V20.6139C217.319 20.3476 217.538 20.1239 217.794 19.9431C218.061 19.7528 218.352 19.6101 218.666 19.5149C218.979 19.4197 219.302 19.3721 219.637 19.3721C220.368 19.3721 220.94 19.5244 221.349 19.8289C221.768 20.1335 222.062 20.5473 222.234 21.0707C222.405 21.5846 222.491 22.1746 222.491 22.8407V26.9802H221.278V23.2119C221.278 22.8788 221.254 22.5505 221.206 22.2269C221.168 21.8939 221.087 21.5941 220.964 21.3277C220.84 21.0612 220.649 20.8471 220.393 20.6853C220.145 20.5236 219.807 20.4426 219.379 20.4426C218.97 20.4426 218.618 20.5331 218.322 20.7139C218.038 20.8947 217.81 21.1373 217.638 21.4419C217.466 21.7368 217.338 22.0652 217.252 22.4268C217.177 22.7789 217.138 23.1262 217.138 23.4688V26.9802H215.925Z" fill="#6C727F"/>
</g>
<defs>
<linearGradient id="paint0_linear_1_741" x1="19.8433" y1="5.55322" x2="19.8433" y2="34.4472" gradientUnits="userSpaceOnUse">
<stop stop-color="#00FFBF"/>
<stop offset="0.404903" stop-color="#66DBFF"/>
<stop offset="1" stop-color="#8A80FF"/>
</linearGradient>
<clipPath id="clip0_1_741">
<rect width="224.7" height="40" fill="white"/>
</clipPath>
</defs>
</svg>
